<?xml version="1.0" standalone="no"?>
<!DOCTYPE svg PUBLIC "-//W3C//DTD SVG 20010904//EN"
 "http://www.w3.org/TR/2001/REC-SVG-20010904/DTD/svg10.dtd">
<svg version="1.0" xmlns="http://www.w3.org/2000/svg"
 width="279.000000pt" height="284.000000pt" viewBox="0 0 279.000000 284.000000"
 preserveAspectRatio="xMidYMid meet">

<g transform="translate(0.000000,284.000000) scale(0.100000,-0.100000)"
fill="#000000" stroke="none">
<path d="M1405 2509 c-22 -6 -57 -22 -78 -36 -33 -23 -50 -27 -116 -28 -105
-2 -160 -36 -220 -138 -13 -21 -47 -53 -76 -71 -97 -63 -125 -110 -125 -212 0
-54 -5 -73 -37 -131 -52 -94 -52 -152 0 -246 32 -58 37 -77 37 -131 0 -102 28
-149 125 -212 29 -18 63 -50 76 -71 60 -102 115 -136 220 -138 66 -1 83 -5
116 -28 83 -57 175 -56 273 4 40 25 55 28 88 23 90 -14 195 45 243 138 12 23
41 52 82 78 34 23 73 57 86 75 29 43 44 108 36 160 -5 34 0 48 25 88 58 92 59
181 4 269 -21 34 -27 55 -29 117 -3 109 -29 152 -131 217 -33 21 -61 49 -73
72 -48 93 -153 152 -243 138 -33 -5 -48 -2 -88 23 -47 29 -111 52 -140 50 -8
-1 -33 -5 -55 -10z m125 -211 c44 -27 62 -32 136 -36 l85 -5 19 -37 c30 -59
69 -99 127 -132 l53 -30 0 -57 c0 -68 19 -138 49 -179 27 -38 27 -66 0 -104
-30 -42 -49 -111 -49 -179 0 -58 0 -59 -39 -78 -59 -31 -100 -69 -132 -126
l-30 -53 -84 -4 c-73 -4 -91 -9 -135 -36 -28 -18 -58 -32 -66 -32 -8 0 -40 14
-71 32 -48 27 -69 32 -140 36 l-84 5 -24 47 c-27 52 -76 100 -135 130 l-40 20
0 73 c0 64 -4 80 -37 144 l-36 72 36 72 c33 63 37 79 37 145 l0 74 43 21 c72
37 93 56 125 117 l32 59 83 5 c71 4 92 9 138 36 30 17 62 31 71 31 9 1 40 -13
68 -31z"/>
<path d="M1376 2000 c-126 -49 -190 -186 -147 -314 28 -82 142 -166 225 -166
107 0 224 92 247 194 20 89 1 154 -64 221 -40 41 -65 57 -106 69 -69 20 -94
20 -155 -4z"/>
<path d="M791 965 c-111 -259 -106 -272 89 -241 55 9 106 16 113 16 7 0 41
-45 77 -100 68 -104 101 -131 137 -112 12 7 48 80 95 191 l76 180 -66 31 c-41
19 -87 32 -123 35 -32 2 -75 9 -97 14 -57 16 -143 80 -177 133 -16 26 -32 47
-35 47 -3 1 -43 -87 -89 -194z"/>
<path d="M2017 1123 c-30 -47 -84 -96 -135 -122 -43 -22 -152 -44 -174 -36
-11 4 -139 -53 -157 -71 -2 -2 29 -83 70 -180 76 -182 92 -204 139 -189 10 3
47 50 84 105 36 54 70 102 76 105 5 3 58 -1 117 -10 59 -9 118 -13 131 -10 33
8 44 46 28 92 -25 70 -138 338 -146 347 -5 4 -19 -9 -33 -31z"/>
</g>
</svg>
