<?xml version="1.0" standalone="no"?>
<!DOCTYPE svg PUBLIC "-//W3C//DTD SVG 20010904//EN"
 "http://www.w3.org/TR/2001/REC-SVG-20010904/DTD/svg10.dtd">
<svg version="1.0" xmlns="http://www.w3.org/2000/svg"
 width="315.000000pt" height="288.000000pt" viewBox="0 0 315.000000 288.000000"
 preserveAspectRatio="xMidYMid meet">

<g transform="translate(0.000000,288.000000) scale(0.100000,-0.100000)"
fill="#000000" stroke="none">
<path d="M830 2591 c-96 -21 -200 -105 -200 -164 0 -37 29 -47 131 -47 72 0
82 -3 104 -25 19 -18 25 -35 25 -69 0 -37 -5 -48 -31 -70 -28 -24 -39 -26
-118 -26 -94 0 -111 -8 -111 -50 0 -33 66 -101 129 -132 37 -19 62 -23 131
-23 103 1 156 22 215 85 22 24 50 54 62 66 l22 24 395 0 394 0 35 -48 c86
-121 264 -167 390 -102 62 32 127 99 127 130 0 43 -17 50 -113 50 -85 0 -90 1
-118 29 -39 39 -41 100 -4 136 22 23 32 25 110 25 101 0 125 9 125 49 0 37
-70 109 -136 141 -73 34 -179 33 -256 -4 -50 -24 -138 -104 -138 -126 0 -25
-67 -30 -427 -30 l-376 0 -64 69 c-41 45 -80 76 -111 89 -55 23 -142 34 -192
23z"/>
<path d="M1207 1956 c-56 -21 -115 -65 -146 -110 -29 -43 -52 -98 -117 -279
-32 -91 -43 -111 -70 -126 -43 -26 -80 -78 -94 -131 -7 -30 -10 -144 -8 -342
3 -279 4 -297 23 -318 44 -50 148 -66 215 -32 50 24 70 71 70 160 l0 72 499 0
498 0 5 -84 c5 -97 21 -130 76 -153 49 -21 143 -13 180 14 50 37 52 47 52 359
0 373 -1 378 -126 473 -6 5 -36 82 -68 172 -37 108 -69 180 -92 212 -38 52
-107 101 -164 117 -57 16 -687 12 -733 -4z m682 -243 c16 -13 101 -215 101
-240 0 -5 -807 -3 -812 2 -10 11 72 220 93 238 19 15 50 17 309 17 259 0 290
-2 309 -17z m-765 -464 c38 -18 60 -71 46 -114 -15 -44 -44 -65 -93 -65 -55 0
-87 35 -87 94 0 37 5 48 31 70 33 28 64 32 103 15z m1000 0 c38 -18 60 -71 46
-114 -15 -44 -44 -65 -93 -65 -55 0 -87 35 -87 94 0 37 5 48 31 70 33 28 64
32 103 15z"/>
</g>
</svg>
