<?xml version="1.0" standalone="no"?>
<!DOCTYPE svg PUBLIC "-//W3C//DTD SVG 20010904//EN"
 "http://www.w3.org/TR/2001/REC-SVG-20010904/DTD/svg10.dtd">
<svg version="1.0" xmlns="http://www.w3.org/2000/svg"
 width="309.000000pt" height="284.000000pt" viewBox="0 0 309.000000 284.000000"
 preserveAspectRatio="xMidYMid meet">

<g transform="translate(0.000000,284.000000) scale(0.100000,-0.100000)"
fill="#000000" stroke="none">
<path d="M737 2240 c-16 -5 -34 -14 -42 -20 -20 -17 -28 -68 -16 -98 25 -59
-14 -57 836 -60 429 -2 795 0 814 3 76 14 106 95 57 152 l-24 28 -799 2 c-439
1 -811 -2 -826 -7z"/>
<path d="M698 1590 c-26 -27 -30 -36 -25 -68 4 -22 17 -46 32 -59 l26 -23 809
0 808 0 31 26 c25 20 31 34 31 64 0 22 -8 47 -19 61 l-19 24 -822 3 -821 2
-31 -30z"/>
<path d="M713 981 c-59 -37 -53 -125 12 -155 29 -14 125 -16 814 -16 835 0
834 0 860 48 14 26 14 68 1 93 -27 50 -11 49 -862 49 -765 0 -794 -1 -825 -19z"/>
</g>
</svg>
