<svg version="1.0" xmlns="http://www.w3.org/2000/svg"
 width="349.000000pt" height="277.000000pt" viewBox="0 0 349.000000 277.000000"
 preserveAspectRatio="x meet">

<g transform="translate(0.000000,277.000000) scale(0.100000,-0.100000)"
fill="#000000" stroke="none">
<path d="M1724 1860 c-62 -11 -208 -57 -248 -77 -15 -8 -54 -16 -85 -17 -69
-4 -115 -26 -141 -69 -32 -51 -23 -58 20 -15 38 39 41 40 97 36 32 -3 94 -15
138 -28 57 -16 109 -23 181 -24 l102 -1 -9 -23 c-5 -13 -9 -33 -9 -45 1 -15 5
-10 15 16 18 52 51 85 92 93 48 9 76 -1 130 -48 81 -70 114 -79 297 -85 156
-5 226 2 233 23 6 18 -40 77 -82 106 -47 32 -114 45 -160 31 -29 -9 -39 -6
-108 37 -102 63 -194 91 -315 95 -54 2 -120 0 -148 -5z m280 -36 c57 -15 189
-74 210 -95 16 -15 -103 -11 -195 7 -45 8 -97 13 -115 9 -28 -5 -35 -1 -61 32
-51 65 -51 63 27 63 40 0 100 -7 134 -16z m-233 -23 c13 -10 32 -33 43 -51
l19 -33 -89 5 c-90 5 -205 41 -187 59 12 12 114 38 154 38 21 1 46 -7 60 -18z
m326 -116 c57 -24 95 -65 60 -65 -25 0 -117 52 -117 66 0 18 12 18 57 -1z
m363 -7 c19 -13 35 -29 38 -35 8 -25 -29 -12 -66 22 -43 40 -25 48 28 13z"/>
<path d="M1305 1815 l-150 -13 157 2 c111 1 161 5 170 14 9 9 8 12 -7 10 -11
0 -87 -7 -170 -13z"/>
<path d="M1110 1736 l-85 -10 90 -7 c79 -5 92 -4 110 13 19 18 19 18 -5 17
-14 -1 -63 -7 -110 -13z"/>
<path d="M1311 1676 c-52 -29 -69 -121 -30 -170 l20 -26 -108 -1 -108 -2 120
-9 c151 -12 882 -12 1075 0 l145 9 -238 1 -238 2 23 31 c62 83 -13 206 -103
169 -16 -7 -37 -26 -46 -43 -19 -38 -13 -110 12 -137 18 -20 16 -20 -210 -20
-222 0 -228 1 -211 19 43 47 37 133 -11 171 -30 23 -58 25 -92 6z m89 -38 c55
-59 -3 -169 -75 -142 -20 8 -45 56 -45 87 0 65 77 100 120 55z m550 0 c29 -32
27 -92 -5 -123 -39 -40 -83 -29 -105 24 -34 83 52 161 110 99z"/>
<path d="M1035 1641 c-39 -6 -38 -7 24 -14 97 -11 128 -9 135 8 4 12 -5 15
-57 14 -34 -1 -80 -5 -102 -8z"/>
<path d="M1496 1572 c5 -5 52 -16 105 -25 53 -9 105 -19 115 -22 11 -4 8 0 -6
9 -53 30 -245 64 -214 38z"/>
<path d="M1080 1551 l-75 -6 93 -9 c51 -4 96 -6 99 -3 9 10 -8 27 -25 25 -9
-1 -51 -4 -92 -7z"/>
<path d="M2162 1524 c-12 -8 -22 -19 -22 -25 0 -17 26 -9 50 16 27 29 9 35
-28 9z"/>
<path d="M2512 1515 c12 -27 28 -34 28 -12 0 14 -20 37 -32 37 -4 0 -2 -11 4
-25z"/>
<path d="M1090 1276 c0 -9 12 -16 28 -18 26 -3 27 -6 30 -65 2 -46 7 -63 17
-63 10 0 15 17 17 63 3 59 4 62 31 65 15 2 27 9 27 18 0 11 -17 14 -75 14 -58
0 -75 -3 -75 -14z"/>
<path d="M1333 1280 c-27 -11 -43 -40 -43 -78 0 -68 106 -101 149 -46 26 33
27 75 4 103 -20 24 -77 35 -110 21z m68 -30 c13 -7 19 -21 19 -44 0 -36 -13
-46 -55 -46 -39 0 -51 62 -17 88 19 15 28 15 53 2z"/>
<path d="M1520 1210 c0 -73 2 -80 20 -80 14 0 20 7 20 24 0 20 6 25 45 30 63
10 83 48 45 86 -15 15 -33 20 -75 20 l-55 0 0 -80z m94 44 c30 -12 18 -34 -19
-34 -28 0 -35 4 -35 20 0 20 22 26 54 14z"/>
<path d="M1763 1280 c-45 -19 -58 -90 -23 -128 32 -34 102 -31 130 6 19 24 20
27 5 30 -9 2 -24 -3 -34 -12 -28 -26 -70 -21 -81 10 -22 56 32 91 82 54 37
-27 58 -14 31 19 -20 24 -77 36 -110 21z"/>
<path d="M1962 1213 c-27 -68 -29 -78 -14 -82 9 -2 18 2 20 8 5 14 89 14 94 0
2 -6 11 -10 20 -8 13 3 11 15 -14 82 -25 65 -33 77 -52 77 -19 0 -28 -13 -54
-77z m78 -25 c0 -5 -11 -8 -25 -8 -29 0 -29 0 -13 35 l12 26 13 -23 c7 -13 12
-26 13 -30z"/>
<path d="M2202 1273 c-6 -10 -21 -46 -35 -80 -24 -59 -24 -63 -7 -63 10 0 22
5 25 10 3 6 24 10 46 10 21 0 39 -4 39 -10 0 -5 9 -10 21 -10 23 0 23 3 -16
97 -25 62 -55 81 -73 46z m43 -70 c5 -20 3 -23 -19 -23 -24 0 -24 2 -14 31 11
32 21 29 33 -8z"/>
<path d="M2370 1211 c0 -65 3 -81 15 -81 9 0 15 9 15 25 0 20 5 25 24 25 14 0
30 -10 40 -25 9 -14 23 -25 31 -25 19 0 19 5 0 34 -14 21 -14 24 0 36 17 14
20 47 6 69 -6 9 -32 16 -70 19 l-61 4 0 -81z m91 38 c27 -14 14 -29 -27 -29
-22 0 -34 5 -34 13 0 28 26 35 61 16z"/>
</g>
</svg>
