<?xml version="1.0" standalone="no"?>
<!DOCTYPE svg PUBLIC "-//W3C//DTD SVG 20010904//EN"
 "http://www.w3.org/TR/2001/REC-SVG-20010904/DTD/svg10.dtd">
<svg version="1.0" xmlns="http://www.w3.org/2000/svg"
 width="321.000000pt" height="294.000000pt" viewBox="0 0 321.000000 294.000000"
 preserveAspectRatio="xMidYMid meet">

<g transform="translate(0.000000,294.000000) scale(0.100000,-0.100000)"
fill="#000000" stroke="none">
<path d="M770 2442 c-96 -47 -84 -194 18 -222 87 -23 152 26 152 114 0 61 -19
92 -66 112 -44 18 -62 18 -104 -4z"/>
<path d="M1444 2446 c-38 -17 -51 -49 -63 -157 -12 -109 -42 -176 -115 -257
-48 -54 -56 -68 -56 -103 0 -30 7 -47 26 -66 56 -56 140 -9 229 127 55 84 82
159 95 262 15 120 13 143 -12 172 -29 32 -64 39 -104 22z"/>
<path d="M2460 2453 c-8 -3 -37 -22 -63 -41 -40 -29 -60 -36 -120 -42 -90 -9
-134 -27 -190 -79 -61 -56 -85 -118 -101 -256 -14 -126 -25 -147 -83 -171 -18
-8 -50 -14 -72 -14 -99 0 -251 -99 -251 -164 0 -55 36 -95 85 -96 28 0 44 8
110 55 17 12 55 22 98 27 130 14 225 82 266 194 11 28 24 98 29 154 9 95 11
104 40 133 27 26 41 32 104 38 88 10 182 53 228 106 28 31 31 42 27 76 -3 22
-14 48 -24 58 -20 20 -61 31 -83 22z"/>
<path d="M2395 1941 c-73 -33 -89 -125 -32 -186 40 -45 89 -55 141 -30 88 42
89 177 2 219 -43 20 -61 20 -111 -3z"/>
<path d="M1045 1703 c-43 -12 -65 -38 -99 -120 -20 -47 -36 -93 -36 -102 0
-10 153 -169 340 -355 296 -295 342 -337 362 -331 90 27 171 70 189 99 23 37
24 87 5 124 -20 38 -668 682 -686 682 -8 0 -24 2 -35 4 -11 2 -29 2 -40 -1z"/>
<path d="M2385 1449 c-147 -19 -266 -73 -365 -168 -55 -52 -60 -60 -60 -99 0
-55 33 -92 83 -92 26 0 47 12 98 56 97 86 149 106 333 129 88 12 127 89 74
149 -28 31 -70 37 -163 25z"/>
<path d="M810 1225 l-43 -117 229 -229 229 -228 113 42 c61 23 112 44 112 47
0 3 -134 139 -299 304 l-298 298 -43 -117z"/>
<path d="M671 852 c-24 -65 -55 -146 -68 -182 -17 -45 -23 -77 -20 -103 10
-74 83 -119 155 -96 32 10 284 104 335 124 16 7 -10 37 -155 182 -95 96 -180
178 -188 183 -13 7 -24 -13 -59 -108z"/>
<path d="M2393 820 c-32 -13 -63 -68 -63 -110 0 -45 32 -97 68 -111 43 -17
110 -5 141 25 22 23 26 35 26 86 0 51 -4 63 -27 86 -29 29 -104 42 -145 24z"/>
</g>
</svg>
