<?xml version="1.0" standalone="no"?>
<!DOCTYPE svg PUBLIC "-//W3C//DTD SVG 20010904//EN"
 "http://www.w3.org/TR/2001/REC-SVG-20010904/DTD/svg10.dtd">
<svg version="1.0" xmlns="http://www.w3.org/2000/svg"
 width="345.000000pt" height="310.000000pt" viewBox="0 0 345.000000 310.000000"
 preserveAspectRatio="xMidYMid meet">

<g transform="translate(0.000000,310.000000) scale(0.100000,-0.100000)"
fill="#000000" stroke="none">
<path d="M509 2629 c-26 -26 -22 -60 18 -147 l28 -62 68 90 67 90 -27 11 c-37
15 -114 39 -125 39 -4 0 -18 -10 -29 -21z"/>
<path d="M1610 2639 c-166 -19 -373 -108 -507 -220 -187 -153 -313 -376 -350
-613 -67 -437 148 -852 544 -1050 158 -79 359 -115 534 -96 176 20 307 65 448
156 82 54 236 196 260 242 12 22 12 22 -105 22 l-116 0 -53 -47 c-96 -86 -226
-152 -350 -179 -80 -18 -255 -17 -347 0 -383 73 -671 448 -644 837 14 210 81
366 219 515 158 170 354 254 594 254 246 0 434 -84 607 -271 45 -49 80 -100
113 -167 26 -53 48 -98 49 -100 1 -1 21 7 45 18 24 11 63 20 87 20 51 0 51 1
-4 118 -89 192 -268 375 -459 470 -75 37 -230 80 -327 91 -108 12 -130 12
-238 0z"/>
<path d="M773 2493 c-53 -63 -106 -136 -142 -196 l-23 -38 33 -82 c17 -45 36
-86 40 -91 4 -5 22 20 39 55 51 102 119 198 199 281 l73 78 -28 11 c-44 17
-116 39 -130 39 -6 0 -34 -26 -61 -57z"/>
<path d="M1357 1920 c-91 -23 -177 -93 -177 -145 0 -39 16 -55 55 -55 21 0 40
9 56 26 30 33 94 64 134 64 40 0 104 -31 134 -64 42 -45 111 -27 111 29 0 35
-53 90 -113 119 -59 29 -144 40 -200 26z"/>
<path d="M1995 1924 c-61 -16 -90 -29 -134 -64 -55 -44 -70 -80 -46 -116 24
-36 67 -32 112 11 74 70 171 70 243 -1 58 -56 120 -44 120 22 0 26 -10 41 -49
76 -27 24 -68 50 -90 57 -49 14 -128 22 -156 15z"/>
<path d="M2630 1829 c-109 -33 -166 -147 -124 -247 33 -80 93 -115 196 -115
67 0 88 13 88 58 0 44 -18 56 -96 64 -69 8 -84 18 -84 61 0 51 34 70 125 70
64 0 102 -11 117 -34 4 -6 8 -79 8 -163 0 -125 -3 -154 -16 -167 -13 -14 -63
-16 -389 -16 l-374 0 14 34 c38 90 -53 180 -207 204 -88 14 -118 -18 -55 -56
37 -24 81 -69 90 -93 8 -25 -26 -73 -77 -108 -25 -18 -46 -38 -46 -46 0 -8 20
-28 45 -45 94 -65 98 -111 15 -178 -63 -52 -69 -61 -47 -77 39 -28 201 22 254
78 39 41 47 77 29 121 l-14 35 381 3 c424 3 413 2 475 72 40 46 44 70 40 267
-3 157 -4 167 -28 202 -37 56 -97 81 -200 84 -47 1 -101 -2 -120 -8z"/>
</g>
</svg>
